<?xml version="1.0" encoding="UTF-8" standalone="no"?>
<!DOCTYPE svg PUBLIC "-//W3C//DTD SVG 1.1//EN"
 "http://www.w3.org/Graphics/SVG/1.1/DTD/svg11.dtd">
<!-- Generated by graphviz version 2.38.0 (20140413.2041)
 -->
<!-- Title: %3 Pages: 1 -->
<svg width="483pt" height="394pt"
 viewBox="0.00 0.00 483.48 393.69" xmlns="http://www.w3.org/2000/svg" xmlns:xlink="http://www.w3.org/1999/xlink">
<g id="graph0" class="graph" transform="scale(1 1) rotate(0) translate(234.094 197.786)">
<title>%3</title>
<polygon fill="white" stroke="none" points="-234.094,195.899 -234.094,-197.786 249.387,-197.786 249.387,195.899 -234.094,195.899"/>
<!-- 1 -->
<g id="node1" class="node"><title>1</title>
<polygon fill="none" stroke="red" points="-38.4013,10.1536 -38.4013,-7.84637 36.5987,-7.84637 36.5987,10.1536 -38.4013,10.1536"/>
<text text-anchor="middle" x="-0.901295" y="3.35363" font-family="Times,serif" font-size="9.00">www.ba.gov.br/</text>
</g>
<!-- 1&#45;&gt;1 -->
<g id="edge1" class="edge"><title>1&#45;&gt;1</title>
<path fill="none" stroke="black" d="M36.7115,-5.54652C46.8702,-5.19304 54.5987,-2.95965 54.5987,1.15363 54.5987,3.72443 51.5798,5.56089 46.8354,6.66302"/>
<polygon fill="black" stroke="black" points="47.0519,10.1616 36.7115,7.85378 46.2342,3.20952 47.0519,10.1616"/>
</g>
<!-- 2 -->
<g id="node2" class="node"><title>2</title>
<polygon fill="none" stroke="black" points="84.3446,19.0075 84.3446,1.00748 188.345,1.00748 188.345,19.0075 84.3446,19.0075"/>
<text text-anchor="middle" x="136.345" y="12.2075" font-family="Times,serif" font-size="9.00">www.ba.gov.br/sitemap/</text>
</g>
<!-- 1&#45;&gt;2 -->
<g id="edge2" class="edge"><title>1&#45;&gt;2</title>
<path fill="none" stroke="black" d="M36.6017,3.57298C48.1875,4.32039 61.2747,5.16465 74.0654,5.98979"/>
<polygon fill="black" stroke="black" points="74.4715,2.50862 84.2254,6.64522 74.0208,9.4941 74.4715,2.50862"/>
</g>
<!-- 3 -->
<g id="node3" class="node"><title>3</title>
<polygon fill="none" stroke="black" points="-115.422,181.295 -115.422,163.295 -5.42215,163.295 -5.42215,181.295 -115.422,181.295"/>
<text text-anchor="middle" x="-60.4222" y="174.495" font-family="Times,serif" font-size="9.00">www.ba.gov.br/node/525/</text>
</g>
<!-- 1&#45;&gt;3 -->
<g id="edge3" class="edge"><title>1&#45;&gt;3</title>
<path fill="none" stroke="black" d="M-4.10139,10.3549C-13.5077,37.401 -41.203,117.034 -53.9125,153.578"/>
<polygon fill="black" stroke="black" points="-50.6155,154.753 -57.2062,163.048 -57.2271,152.454 -50.6155,154.753"/>
</g>
<!-- 4 -->
<g id="node4" class="node"><title>4</title>
<polygon fill="none" stroke="black" points="-85.8172,-163.932 -85.8172,-181.932 29.1828,-181.932 29.1828,-163.932 -85.8172,-163.932"/>
<text text-anchor="middle" x="-28.3172" y="-170.732" font-family="Times,serif" font-size="9.00">www.ba.gov.br/node/1050/</text>
</g>
<!-- 1&#45;&gt;4 -->
<g id="edge4" class="edge"><title>1&#45;&gt;4</title>
<path fill="none" stroke="black" d="M-2.3753,-8.20595C-6.68932,-35.5991 -19.3553,-116.026 -25.2431,-153.411"/>
<polygon fill="black" stroke="black" points="-28.7376,-153.103 -26.836,-163.526 -21.8228,-154.192 -28.7376,-153.103"/>
</g>
<!-- 5 -->
<g id="node5" class="node"><title>5</title>
<polygon fill="none" stroke="black" points="67.5616,-67.0242 67.5616,-85.0242 171.562,-85.0242 171.562,-67.0242 67.5616,-67.0242"/>
<text text-anchor="middle" x="119.562" y="-73.8242" font-family="Times,serif" font-size="9.00">www.ba.gov.br/cidadao/</text>
</g>
<!-- 1&#45;&gt;5 -->
<g id="edge5" class="edge"><title>1&#45;&gt;5</title>
<path fill="none" stroke="black" d="M13.3904,-8.00275C33.9482,-21.1737 72.0851,-45.6071 96.6174,-61.3244"/>
<polygon fill="black" stroke="black" points="94.9802,-64.4321 105.288,-66.8797 98.7564,-58.538 94.9802,-64.4321"/>
</g>
<!-- 6 -->
<g id="node6" class="node"><title>6</title>
<polygon fill="none" stroke="black" points="-155.02,-33.1853 -155.02,-51.1853 -48.0203,-51.1853 -48.0203,-33.1853 -155.02,-33.1853"/>
<text text-anchor="middle" x="-101.52" y="-39.9853" font-family="Times,serif" font-size="9.00">www.ba.gov.br/servidor/</text>
</g>
<!-- 1&#45;&gt;6 -->
<g id="edge6" class="edge"><title>1&#45;&gt;6</title>
<path fill="none" stroke="black" d="M-22.24,-8.03745C-36.4761,-14.1693 -55.407,-22.3233 -71.1997,-29.1256"/>
<polygon fill="black" stroke="black" points="-72.7577,-25.9857 -80.5574,-33.1561 -69.9885,-32.4147 -72.7577,-25.9857"/>
</g>
<!-- 7 -->
<g id="node7" class="node"><title>7</title>
<polygon fill="none" stroke="black" points="-201.58,99.1196 -201.58,81.1196 -97.58,81.1196 -97.58,99.1196 -201.58,99.1196"/>
<text text-anchor="middle" x="-149.58" y="92.3196" font-family="Times,serif" font-size="9.00">www.ba.gov.br/turismo/</text>
</g>
<!-- 1&#45;&gt;7 -->
<g id="edge7" class="edge"><title>1&#45;&gt;7</title>
<path fill="none" stroke="black" d="M-15.9756,10.1738C-41.8006,25.6268 -94.7034,57.2826 -125.628,75.7874"/>
<polygon fill="black" stroke="black" points="-124.088,78.9442 -134.466,81.0756 -127.682,72.9374 -124.088,78.9442"/>
</g>
<!-- 8 -->
<g id="node8" class="node"><title>8</title>
<polygon fill="none" stroke="black" points="106.077,78.3983 106.077,60.3983 219.077,60.3983 219.077,78.3983 106.077,78.3983"/>
<text text-anchor="middle" x="162.577" y="71.5983" font-family="Times,serif" font-size="9.00">www.ba.gov.br/investidor/</text>
</g>
<!-- 1&#45;&gt;8 -->
<g id="edge8" class="edge"><title>1&#45;&gt;8</title>
<path fill="none" stroke="black" d="M20.8074,10.216C49.1436,22.045 98.9309,42.8289 131.326,56.3525"/>
<polygon fill="black" stroke="black" points="132.899,53.2162 140.779,60.2984 130.202,59.6759 132.899,53.2162"/>
</g>
<!-- 9 -->
<g id="node9" class="node"><title>9</title>
<polygon fill="none" stroke="black" points="-165.947,133.264 -165.947,95.2638 -31.9466,95.2638 -31.9466,133.264 -165.947,133.264"/>
<text text-anchor="middle" x="-98.9466" y="106.464" font-family="Times,serif" font-size="9.00">www.ba.gov.br/noticias/rui&#45;anun</text>
<text text-anchor="middle" x="-98.9466" y="116.464" font-family="Times,serif" font-size="9.00">cia&#45;aprovacao&#45;de&#45;estatuto&#45;do&#45;c</text>
<text text-anchor="middle" x="-98.9466" y="126.464" font-family="Times,serif" font-size="9.00">onsorcio&#45;do&#45;nordeste/</text>
</g>
<!-- 1&#45;&gt;9 -->
<g id="edge9" class="edge"><title>1&#45;&gt;9</title>
<path fill="none" stroke="black" d="M-8.92476,10.4099C-23.3687,27.0731 -54.2457,62.6945 -75.787,87.5457"/>
<polygon fill="black" stroke="black" points="-73.2255,89.9342 -82.4202,95.1981 -78.515,85.3492 -73.2255,89.9342"/>
</g>
<!-- 10 -->
<g id="node10" class="node"><title>10</title>
<polygon fill="none" stroke="black" points="-22.5644,191.399 -22.5644,153.399 111.436,153.399 111.436,191.399 -22.5644,191.399"/>
<text text-anchor="middle" x="44.4356" y="164.599" font-family="Times,serif" font-size="9.00">www.ba.gov.br/noticias/rui&#45;anun</text>
<text text-anchor="middle" x="44.4356" y="174.599" font-family="Times,serif" font-size="9.00">cia&#45;aprovacao&#45;de&#45;estatuto&#45;do&#45;c</text>
<text text-anchor="middle" x="44.4356" y="184.599" font-family="Times,serif" font-size="9.00">onsorcio&#45;do&#45;nordeste/</text>
</g>
<!-- 1&#45;&gt;10 -->
<g id="edge10" class="edge"><title>1&#45;&gt;10</title>
<path fill="none" stroke="black" d="M1.53621,10.3605C8.08709,35.1044 26.2839,103.837 36.7535,143.383"/>
<polygon fill="black" stroke="black" points="40.1854,142.67 39.3614,153.233 33.4185,144.462 40.1854,142.67"/>
</g>
<!-- 11 -->
<g id="node11" class="node"><title>11</title>
<polygon fill="none" stroke="black" points="-83.9487,151.924 -83.9487,113.924 52.0513,113.924 52.0513,151.924 -83.9487,151.924"/>
<text text-anchor="middle" x="-15.9487" y="125.124" font-family="Times,serif" font-size="9.00">www.ba.gov.br/noticias/obras&#45;do</text>
<text text-anchor="middle" x="-15.9487" y="135.124" font-family="Times,serif" font-size="9.00">&#45;hospital&#45;metropolitano&#45;seguem</text>
<text text-anchor="middle" x="-15.9487" y="145.124" font-family="Times,serif" font-size="9.00">&#45;em&#45;ritmo&#45;acelerado&#45;0/</text>
</g>
<!-- 1&#45;&gt;11 -->
<g id="edge11" class="edge"><title>1&#45;&gt;11</title>
<path fill="none" stroke="black" d="M-1.93556,10.2107C-4.09996,29.1644 -9.18837,73.7238 -12.6003,103.602"/>
<polygon fill="black" stroke="black" points="-9.1609,104.333 -13.773,113.871 -16.1157,103.539 -9.1609,104.333"/>
</g>
<!-- 12 -->
<g id="node12" class="node"><title>12</title>
<polygon fill="none" stroke="black" points="-230.094,50.0839 -230.094,12.0839 -94.0936,12.0839 -94.0936,50.0839 -230.094,50.0839"/>
<text text-anchor="middle" x="-162.094" y="23.2839" font-family="Times,serif" font-size="9.00">www.ba.gov.br/noticias/obras&#45;do</text>
<text text-anchor="middle" x="-162.094" y="33.2839" font-family="Times,serif" font-size="9.00">&#45;hospital&#45;metropolitano&#45;seguem</text>
<text text-anchor="middle" x="-162.094" y="43.2839" font-family="Times,serif" font-size="9.00">&#45;em&#45;ritmo&#45;acelerado&#45;0/</text>
</g>
<!-- 1&#45;&gt;12 -->
<g id="edge12" class="edge"><title>1&#45;&gt;12</title>
<path fill="none" stroke="black" d="M-38.6937,8.17094C-52.2047,10.6797 -67.9766,13.6082 -83.6404,16.5166"/>
<polygon fill="black" stroke="black" points="-83.4224,20.0359 -93.8933,18.4204 -84.7003,13.1535 -83.4224,20.0359"/>
</g>
<!-- 13 -->
<g id="node13" class="node"><title>13</title>
<polygon fill="none" stroke="black" points="111.387,-12.0171 111.387,-60.0171 245.387,-60.0171 245.387,-12.0171 111.387,-12.0171"/>
<text text-anchor="middle" x="178.387" y="-48.8171" font-family="Times,serif" font-size="9.00">www.ba.gov.br/noticias/sao&#45;joao</text>
<text text-anchor="middle" x="178.387" y="-38.8171" font-family="Times,serif" font-size="9.00">&#45;da&#45;bahia&#45;promove&#45;50&#45;horas&#45;de&#45;</text>
<text text-anchor="middle" x="178.387" y="-28.8171" font-family="Times,serif" font-size="9.00">festa&#45;no&#45;pelourinho&#45;e&#45;em&#45;parip</text>
<text text-anchor="middle" x="178.387" y="-18.8171" font-family="Times,serif" font-size="9.00">e/</text>
</g>
<!-- 1&#45;&gt;13 -->
<g id="edge13" class="edge"><title>1&#45;&gt;13</title>
<path fill="none" stroke="black" d="M36.6833,-6.63856C55.4668,-10.5328 78.917,-15.3946 101.301,-20.0354"/>
<polygon fill="black" stroke="black" points="100.648,-23.4743 111.15,-22.0773 102.069,-16.6201 100.648,-23.4743"/>
</g>
<!-- 14 -->
<g id="node14" class="node"><title>14</title>
<polygon fill="none" stroke="black" points="51.4361,-110.98 51.4361,-158.98 185.436,-158.98 185.436,-110.98 51.4361,-110.98"/>
<text text-anchor="middle" x="118.436" y="-147.78" font-family="Times,serif" font-size="9.00">www.ba.gov.br/noticias/sao&#45;joao</text>
<text text-anchor="middle" x="118.436" y="-137.78" font-family="Times,serif" font-size="9.00">&#45;da&#45;bahia&#45;promove&#45;50&#45;horas&#45;de&#45;</text>
<text text-anchor="middle" x="118.436" y="-127.78" font-family="Times,serif" font-size="9.00">festa&#45;no&#45;pelourinho&#45;e&#45;em&#45;parip</text>
<text text-anchor="middle" x="118.436" y="-117.78" font-family="Times,serif" font-size="9.00">e/</text>
</g>
<!-- 1&#45;&gt;14 -->
<g id="edge14" class="edge"><title>1&#45;&gt;14</title>
<path fill="none" stroke="black" d="M7.30125,-8.20338C24.1235,-27.3933 63.2177,-71.9898 90.2427,-102.818"/>
<polygon fill="black" stroke="black" points="87.9502,-105.513 97.174,-110.725 93.214,-100.898 87.9502,-105.513"/>
</g>
<!-- 15 -->
<g id="node15" class="node"><title>15</title>
<polygon fill="none" stroke="black" points="-21.2172,-145.286 -21.2172,-193.286 115.783,-193.286 115.783,-145.286 -21.2172,-145.286"/>
<text text-anchor="middle" x="47.2828" y="-182.086" font-family="Times,serif" font-size="9.00">www.ba.gov.br/noticias/governo&#45;</text>
<text text-anchor="middle" x="47.2828" y="-172.086" font-family="Times,serif" font-size="9.00">abre&#45;inscricoes&#45;para&#45;premio&#45;de</text>
<text text-anchor="middle" x="47.2828" y="-162.086" font-family="Times,serif" font-size="9.00">&#45;boas&#45;praticas&#45;no&#45;servico&#45;publ</text>
<text text-anchor="middle" x="47.2828" y="-152.086" font-family="Times,serif" font-size="9.00">ico/</text>
</g>
<!-- 1&#45;&gt;15 -->
<g id="edge15" class="edge"><title>1&#45;&gt;15</title>
<path fill="none" stroke="black" d="M1.68929,-8.00994C8.36068,-31.6084 26.3967,-95.4065 37.6821,-135.326"/>
<polygon fill="black" stroke="black" points="34.3753,-136.495 40.4638,-145.166 41.1113,-134.591 34.3753,-136.495"/>
</g>
<!-- 16 -->
<g id="node16" class="node"><title>16</title>
<polygon fill="none" stroke="black" points="-0.235427,114.315 -0.235427,66.3151 136.765,66.3151 136.765,114.315 -0.235427,114.315"/>
<text text-anchor="middle" x="68.2646" y="77.5151" font-family="Times,serif" font-size="9.00">www.ba.gov.br/noticias/governo&#45;</text>
<text text-anchor="middle" x="68.2646" y="87.5151" font-family="Times,serif" font-size="9.00">abre&#45;inscricoes&#45;para&#45;premio&#45;de</text>
<text text-anchor="middle" x="68.2646" y="97.5151" font-family="Times,serif" font-size="9.00">&#45;boas&#45;praticas&#45;no&#45;servico&#45;publ</text>
<text text-anchor="middle" x="68.2646" y="107.515" font-family="Times,serif" font-size="9.00">ico/</text>
</g>
<!-- 1&#45;&gt;16 -->
<g id="edge16" class="edge"><title>1&#45;&gt;16</title>
<path fill="none" stroke="black" d="M6.24016,10.3596C14.9606,21.6012 30.1782,41.2181 43.3571,58.207"/>
<polygon fill="black" stroke="black" points="46.2617,56.241 49.6256,66.2876 40.7307,60.5316 46.2617,56.241"/>
</g>
<!-- 17 -->
<g id="node17" class="node"><title>17</title>
<polygon fill="none" stroke="black" points="52.0895,152.915 52.0895,114.915 185.09,114.915 185.09,152.915 52.0895,152.915"/>
<text text-anchor="middle" x="118.59" y="126.115" font-family="Times,serif" font-size="9.00">www.ba.gov.br/noticias/bahia&#45;in</text>
<text text-anchor="middle" x="118.59" y="136.115" font-family="Times,serif" font-size="9.00">tensifica&#45;acoes&#45;para&#45;atrair&#45;tu</text>
<text text-anchor="middle" x="118.59" y="146.115" font-family="Times,serif" font-size="9.00">rista&#45;norte&#45;americano/</text>
</g>
<!-- 1&#45;&gt;17 -->
<g id="edge17" class="edge"><title>1&#45;&gt;17</title>
<path fill="none" stroke="black" d="M7.31179,10.2789C25.0269,29.9615 67.4092,77.0508 94.457,107.103"/>
<polygon fill="black" stroke="black" points="97.2239,104.945 101.312,114.719 92.0209,109.628 97.2239,104.945"/>
</g>
<!-- 18 -->
<g id="node18" class="node"><title>18</title>
<polygon fill="none" stroke="black" points="-206.917,-89.8514 -206.917,-127.851 -73.9173,-127.851 -73.9173,-89.8514 -206.917,-89.8514"/>
<text text-anchor="middle" x="-140.417" y="-116.651" font-family="Times,serif" font-size="9.00">www.ba.gov.br/noticias/bahia&#45;in</text>
<text text-anchor="middle" x="-140.417" y="-106.651" font-family="Times,serif" font-size="9.00">tensifica&#45;acoes&#45;para&#45;atrair&#45;tu</text>
<text text-anchor="middle" x="-140.417" y="-96.6514" font-family="Times,serif" font-size="9.00">rista&#45;norte&#45;americano/</text>
</g>
<!-- 1&#45;&gt;18 -->
<g id="edge18" class="edge"><title>1&#45;&gt;18</title>
<path fill="none" stroke="black" d="M-12.3185,-7.84854C-33.0485,-24.1936 -77.5661,-59.2947 -108.249,-83.4877"/>
<polygon fill="black" stroke="black" points="-110.431,-80.7509 -116.117,-89.6909 -106.097,-86.2477 -110.431,-80.7509"/>
</g>
<!-- 19 -->
<g id="node19" class="node"><title>19</title>
<polygon fill="none" stroke="black" points="-225.045,-24.9826 -225.045,-42.9826 -121.045,-42.9826 -121.045,-24.9826 -225.045,-24.9826"/>
<text text-anchor="middle" x="-173.045" y="-31.7826" font-family="Times,serif" font-size="9.00">www.ba.gov.br/noticias/</text>
</g>
<!-- 1&#45;&gt;19 -->
<g id="edge19" class="edge"><title>1&#45;&gt;19</title>
<path fill="none" stroke="black" d="M-38.679,-6.55717C-62.0951,-11.3366 -92.5619,-17.5552 -118.563,-22.8623"/>
<polygon fill="black" stroke="black" points="-119.557,-19.4928 -128.655,-24.922 -118.157,-26.3514 -119.557,-19.4928"/>
</g>
<!-- 20 -->
<g id="node20" class="node"><title>20</title>
<polygon fill="none" stroke="black" points="-150.322,-126.97 -150.322,-154.97 -15.3216,-154.97 -15.3216,-126.97 -150.322,-126.97"/>
<text text-anchor="middle" x="-82.8216" y="-143.77" font-family="Times,serif" font-size="9.00">www.ba.gov.br/galeria&#45;multimidi</text>
<text text-anchor="middle" x="-82.8216" y="-133.77" font-family="Times,serif" font-size="9.00">a/</text>
</g>
<!-- 1&#45;&gt;20 -->
<g id="edge20" class="edge"><title>1&#45;&gt;20</title>
<path fill="none" stroke="black" d="M-6.27632,-8.17152C-18.9863,-30.2221 -51.1965,-86.1037 -69.527,-117.905"/>
<polygon fill="black" stroke="black" points="-72.7717,-116.526 -74.7332,-126.938 -66.707,-120.022 -72.7717,-116.526"/>
</g>
<!-- 21 -->
<g id="node21" class="node"><title>21</title>
<polygon fill="none" stroke="black" points="-34.8642,-93.6472 -34.8642,-111.647 75.1358,-111.647 75.1358,-93.6472 -34.8642,-93.6472"/>
<text text-anchor="middle" x="20.1358" y="-100.447" font-family="Times,serif" font-size="9.00">www.ba.gov.br/node/232/</text>
</g>
<!-- 1&#45;&gt;21 -->
<g id="edge21" class="edge"><title>1&#45;&gt;21</title>
<path fill="none" stroke="black" d="M0.965608,-8.05801C4.38937,-24.9515 11.7369,-61.2057 16.2757,-83.6006"/>
<polygon fill="black" stroke="black" points="12.8865,-84.4989 18.3031,-93.6045 19.747,-83.1085 12.8865,-84.4989"/>
</g>
</g>
</svg>
